<svg xmlns="http://www.w3.org/2000/svg" width="1280" height="90" viewBox="0 0 1280 90" role="img" aria-label="ARGOS"><title>ARGOS</title>
  <defs><linearGradient id="iri" x1="0" y1="0" x2="1" y2="0"><stop offset="0" stop-color="#0FB5BA"/><stop offset=".5" stop-color="#2F6BFF"/><stop offset="1" stop-color="#8B5CF6"/></linearGradient><clipPath id="c"><rect width="1280" height="90" rx="24"/></clipPath></defs>
  <g clip-path="url(#c)"><rect width="1280" height="90" fill="#05070D"/><circle cx="26.0" cy="45" r="9" fill="url(#iri)" opacity="0.35"/><circle cx="79.7" cy="45" r="6" fill="url(#iri)" opacity="0.44"/><circle cx="133.4" cy="45" r="9" fill="url(#iri)" opacity="0.53"/><circle cx="187.1" cy="45" r="6" fill="url(#iri)" opacity="0.61"/><circle cx="240.8" cy="45" r="9" fill="url(#iri)" opacity="0.69"/><circle cx="294.5" cy="45" r="6" fill="url(#iri)" opacity="0.76"/><circle cx="348.2" cy="45" r="9" fill="url(#iri)" opacity="0.83"/><circle cx="401.9" cy="45" r="6" fill="url(#iri)" opacity="0.88"/><circle cx="455.6" cy="45" r="9" fill="url(#iri)" opacity="0.93"/><circle cx="509.3" cy="45" r="6" fill="url(#iri)" opacity="0.96"/><circle cx="563.0" cy="45" r="9" fill="url(#iri)" opacity="0.99"/><circle cx="616.7" cy="45" r="6" fill="url(#iri)" opacity="1.00"/><circle cx="670.4" cy="45" r="9" fill="url(#iri)" opacity="1.00"/><circle cx="724.1" cy="45" r="6" fill="url(#iri)" opacity="0.99"/><circle cx="777.8" cy="45" r="9" fill="url(#iri)" opacity="0.96"/><circle cx="831.5" cy="45" r="6" fill="url(#iri)" opacity="0.93"/><circle cx="885.2" cy="45" r="9" fill="url(#iri)" opacity="0.88"/><circle cx="938.9" cy="45" r="6" fill="url(#iri)" opacity="0.83"/><circle cx="992.6" cy="45" r="9" fill="url(#iri)" opacity="0.76"/><circle cx="1046.3" cy="45" r="6" fill="url(#iri)" opacity="0.69"/><circle cx="1100.0" cy="45" r="9" fill="url(#iri)" opacity="0.61"/><circle cx="1153.7" cy="45" r="6" fill="url(#iri)" opacity="0.53"/><circle cx="1207.4" cy="45" r="9" fill="url(#iri)" opacity="0.44"/><circle cx="1261.1" cy="45" r="6" fill="url(#iri)" opacity="0.35"/></g>
</svg>
